<svg xmlns="http://www.w3.org/2000/svg" xmlns:xlink="http://www.w3.org/1999/xlink" width="703" height="674" viewBox="0 0 703 674"><defs><linearGradient id="a" x1="0.5" x2="0.5" y2="0.537" gradientUnits="objectBoundingBox"><stop offset="0" stop-color="#c98802"/><stop offset="1" stop-color="#e8b300"/></linearGradient></defs><g transform="translate(-1060 -544)"><ellipse cx="341" cy="326.5" rx="341" ry="326.5" transform="translate(1081 544)" fill="#e8b300" opacity="0.299"/><g transform="translate(25 -88)"><ellipse cx="330" cy="328.5" rx="330" ry="328.5" transform="translate(1035 649)" fill="url(#a)"/><g transform="translate(1141.8 668)"><g transform="translate(222.678 63.514)"><path d="M236.069,285.88c-25.3,53.233-74.177,67.2-104.729,68.078l25.3,41.887c31.018-5.474,79.424-46.26,95.995-103.854Z" transform="translate(-131.34 -24.702)" fill="#90d3ca"/><path d="M174.625,394.325c-19.535,7.814-102.207,5.122-128.035-.227-8.552-26.123-4.668-93.564,2.487-114.928,22.977-3.339,86.613-7.28,109.59-9.79C163.676,301.976,170.956,361.434,174.625,394.325Z" transform="translate(48.473 -26.942)" fill="#d8f1e3"/><path d="M130.785,294.84c-5.963-.023-16.525,53.086-14.788,60.059s10.926,15.708,15.742,15.719,12.891-10.415,13.5-19.126S136.055,294.851,130.785,294.84Z" transform="translate(-6.328 -23.485)" fill="#e20e00"/><path d="M69.084,281.48,57.056,299.686C84.9,358.224,66.687,360.5,16.1,360.472l5.225,32.562C121.4,402.927,138.547,372.818,69.084,281.48Z" transform="translate(141.078 -25.299)" fill="#90d3ca"/><path d="M67.117,274.83,56.464,297.375c33.21,59.809,19.1,68.248-38.184,66.624l4.986,29.939C123.338,403.83,136.581,366.168,67.117,274.83Z" transform="translate(139.137 -26.202)" fill="#d8f1e3"/><g transform="translate(80.888 311.595)"><path d="M129.673,339.333c-6.213-10.517-23.34-13.413-32.653-.375s4.941,22.727,9.733,14.629c6.406-10.824,9.654-7.042,13.618-6.179,5.338,5.463,5.3,15.4,5.122,17.366s-7.269.806-13.141-3.714c-6.837-5.27-12.016,10.937-2.714,14.651,13,5.19,19.228.556,24.533,1.545s22.681,12.664,36.935,5.667c9.4-4.611,5.156-20.648,1.772-27.974C166.9,341.98,129.673,339.333,129.673,339.333Z" transform="translate(-93.929 -330.27)" fill="#ffc78a"/><path d="M125.679,338.128c-6.144-6.315-16.446.875-20.66,4.8a88.241,88.241,0,0,1,4.089,15.242,32.122,32.122,0,0,0,5.508-2.408,5.652,5.652,0,0,0,2.26,6.587c2.215,1.658,5.588,1.159,8.927-.1-.045,2.1,4.157,3.578,7.087,4.407,5.406,1.533,15.174-8.143,15.174-8.143S126.963,339.457,125.679,338.128Z" transform="translate(-77.761 -329.542)" fill="#e08e68"/><path d="M149.621,346.709a8.036,8.036,0,0,0-6.008-2.476,34.093,34.093,0,0,0-3.6-4.271c-3.475-3.566-8.28-2.828-12.562-.784a36.713,36.713,0,0,0-3.123-3.6c-6.144-6.315-16.446.875-20.66,4.8s-9.654,10.642-3.816,15.038c3.226,2.431,8.95.238,13.413-2.2a5.652,5.652,0,0,0,2.26,6.587c2.215,1.658,5.588,1.158,8.927-.1-.045,2.1,1.885,2.976,4.645,4.259,5.338,2.487,15.867-3.737,15.867-3.737S164.545,362.053,149.621,346.709Z" transform="translate(-76.159 -329.889)" fill="#ffc78a"/><path d="M138.49,345.247s2.544-4.486,9.211-8.927C139.66,336.5,139.194,342.714,138.49,345.247Z" transform="translate(-115.41 -329.449)" fill="#e08e68"/><path d="M128.1,352.153s2.022-6.621,10.324-11.233c-8.791,3.123-10.915,5.826-13.288,13.482C126.594,354.538,128.1,352.153,128.1,352.153Z" transform="translate(-90.975 -328.824)" fill="#e08e68"/><path d="M113.015,359.786c.079-3.385,3.532-10.563,14.947-14.856-9.143,1.488-15.912,7.632-16.491,15.06C112.912,360.126,113.015,359.786,113.015,359.786Z" transform="translate(-64.982 -328.28)" fill="#e08e68"/></g><g transform="translate(24.066)"><g transform="translate(0 106.293)"><path d="M223.355,190.961c1.045,18.751-9.6,34.6-23.783,35.379s-29.212-13.618-30.257-32.358,12.278-34.743,26.463-35.538S222.31,172.209,223.355,190.961Z" transform="translate(-169.258 -148.301)" fill="#2f6871"/><path d="M175.3,186.559c-.386-6.883,7.825-21.67,17.548-25.373s22.34,3.714,26.952,13.4C206.332,183.924,175.587,191.511,175.3,186.559Z" transform="translate(-172.485 -148.056)" fill="#407d85"/><ellipse cx="42.078" cy="28.223" rx="42.078" ry="28.223" transform="translate(11.654 87.175) rotate(-93.199)" fill="#074f57"/><path d="M159.53,189.68c1.454,22.977,15.038,40.842,30.5,39.979,12.88-.716,23-14.2,25.4-31.96C197.09,198.868,177.361,194.246,159.53,189.68Z" transform="translate(-150.204 -144.056)" fill="#0d4546"/></g><g transform="translate(7.33)"><path d="M211.806,291.706c-42.5,8.882-76.278,8.711-93.735,10.381C34.82,255.293,34.957,192.338,65.1,113.323c12.357-32.392,145.7-19.285,154.986,0S218.848,226.967,211.806,291.706Z" transform="translate(-37.663 -50.801)" fill="#ffc88b"/><path d="M138.866,118.965c0-7.78-85.262,16.151-103.582-31.517s60.32-23.136,108.2-.409c19.172-6.11,66.09-2.033,23.136,109.374C150.769,165.157,138.866,142.737,138.866,118.965Z" transform="translate(17.889 -55.353)" fill="#973200"/><path d="M188.344,193.34c-4.782,7.28-44.783,2.374-43.613-4.713s17.252-30.9,25.339-31.586c2.476-.2,9.779-.818,12.834,2.737S193.137,186.059,188.344,193.34Z" transform="translate(-115.227 -42.217)" fill="#ff8663"/><path d="M60.2,134.573a136.284,136.284,0,0,1-22.477,13.493c-1.4.681-2.805,1.374-4.214,2.056,4.77,11.2,10.971,23.238,17.956,36.98,9.347-24.249,14.436-43.409,16.491-58.492C65.4,130.632,62.8,132.608,60.2,134.573Z" transform="translate(133.058 -46.054)" fill="#7a2503"/><path d="M19.861,179.323s14.163-24.362,33.516-7.621c22.386,19.365-1.908,74.722-33.505,55.7C20.418,208.172,19.861,179.323,19.861,179.323Z" transform="translate(154.441 -41.001)" fill="#ffc88b"/><path d="M31.838,186.575s14.549-15.787,21.239-.182c7.894,18.411-6.44,33.778-21.818,27.622C31.565,203.271,31.838,186.575,31.838,186.575Z" transform="translate(148.257 -39.144)" fill="#ff9a7c"/><path d="M78.1,69.08c-1.317,4.18-.8,9.8,2.022,17.15,9.177,23.885,35.175,36.833,97.982,29.7C103.993,108.8,88.422,92.011,78.1,69.08Z" transform="translate(-26.947 -54.136)" fill="#7a2503"/><path d="M143.322,69.844C153.419,50.3,190.251,46.731,201.3,89.7c5.6,21.784,27.917,31.324,14.685,39.2C195.68,140.966,122.549,110.062,143.322,69.844Z" transform="translate(-139.645 -55.922)" fill="#973200"/><path d="M139.649,95.54c14.754,23.17,56.527,36.64,71.11,27.963,6.86-4.077,4.157-8.62-.818-15.083C213.042,119.55,173.574,124.036,139.649,95.54Z" transform="translate(-134.416 -50.543)" fill="#7a2503"/><path d="M168.457,184.953h-.818A62.545,62.545,0,0,1,146.3,181.2a17.837,17.837,0,0,0-1.442,4.157c-1.17,7.087,38.82,11.994,43.613,4.713,1.374-2.078,1.76-5.44,1.545-9.245A47.236,47.236,0,0,1,168.457,184.953Z" transform="translate(-115.488 -38.964)" fill="#ff544c"/><ellipse cx="5.724" cy="12.482" rx="5.724" ry="12.482" transform="translate(100.284 102.716)" fill="#2a0000"/><ellipse cx="5.724" cy="12.482" rx="5.724" ry="12.482" transform="translate(22.95 99.934)" fill="#2a0000"/><path d="M94.095,213.45s27.747-.693,87.738-21.5C185.4,271.9,115.14,257.245,94.095,213.45Z" transform="translate(-49.758 -37.454)" fill="#d83536"/></g><g transform="translate(113.149 30.519)"><path d="M59.075,176.933S73.954,107.776,39.4,83.959c19.671-8.325,41.126,28.621,29.8,88.2A98.2,98.2,0,0,1,59.075,176.933Z" transform="translate(16.155 -82.793)" fill="#a1d8ce"/><path d="M43.873,141.723c2.862-.386,5.826-.875,8.768-1.533a176.925,176.925,0,0,1-2.93,24.192,98.2,98.2,0,0,1-10.131,4.77,172.563,172.563,0,0,0,3.078-27.27C43.055,141.814,43.464,141.78,43.873,141.723Z" transform="translate(35.661 -75.001)" fill="#89ccc2"/><g transform="translate(0 148.759)"><path d="M98.843,213.77C91.6,235.145,78.785,247.184,55.57,250.705l1.124,8.087c24.305-1.011,44.442-20.273,47.486-40.081Z" transform="translate(-34.039 -213.77)" fill="#0d4546"/><path d="M112.906,260.849l-8.938,1.249a8.833,8.833,0,0,1-9.983-7.53l-.114-.8a8.833,8.833,0,0,1,7.53-9.983l8.938-1.249a8.833,8.833,0,0,1,9.983,7.53l.114.8A8.839,8.839,0,0,1,112.906,260.849Z" transform="translate(-93.783 -209.876)" fill="#0d4546"/><path d="M102.324,244.764l7.962-1.113c4.021-.568,7.655,1.647,8.121,4.929h0c.454,3.282-2.839,3.464-6.86,4.032l-7.973,1.011c-4.021.568-7.235,1.386-7.689-1.9h0C95.408,248.444,98.292,245.32,102.324,244.764Z" transform="translate(-94.037 -209.725)" fill="#074f57"/></g><g transform="translate(53.254 81.711)"><ellipse cx="28.223" cy="42.078" rx="28.223" ry="42.078" transform="translate(56.357 87.175) rotate(-176.801)" fill="#074f57"/><path d="M74.671,194.91c-1.454,22.977-15.038,40.842-30.5,39.979-12.88-.716-23-14.2-25.4-31.96C37.1,204.1,56.828,199.476,74.671,194.91Z" transform="translate(-15.999 -149.283)" fill="#0d4546"/><path d="M10.65,196.191c-1.045,18.751,9.6,34.6,23.783,35.379s29.212-13.618,30.257-32.358-12.278-34.743-26.463-35.538S11.706,177.439,10.65,196.191Z" transform="translate(3.239 -153.528)" fill="#2f6871"/><path d="M57.548,191.789c.386-6.883-7.825-21.67-17.548-25.373s-22.34,3.714-26.952,13.4C26.53,189.154,57.264,196.741,57.548,191.789Z" transform="translate(7.621 -153.283)" fill="#407d85"/></g></g></g><path d="M166.387,264.28c-35.754,5.554-80.923,9.12-114.269,8.643l-.738,16.866,17.32,3.669,12.868-16.23L96.481,294.06c25.566-3.123,48.917-6.86,73.37-15.639Z" transform="translate(42.264 -27.634)" fill="#ffffef"/><path d="M118.452,279.049c2.737-6.269,23.408-6.792,23.828-.2s-5.633,16.241-12.368,15.344S116.374,283.808,118.452,279.049Z" transform="translate(-5.932 -26.298)" fill="#e20e00"/></g><g transform="translate(52.917 252.911)"><path d="M359.472,370.364H226.281a6.409,6.409,0,0,1-6.372-5.724l-.829-7.735,139.381-.965Z" transform="translate(-168.063 -204.587)" fill="#0a3e4f"/><path d="M222.426,228.407s-3.771,1.2-2.249,6.712c1.84,6.656,34,111.873,42.239,136.678a7.986,7.986,0,0,0,7.292,5.463c16.48.6,133.5,1.442,135.179,1.851,0,0,5.963-3.044,5.474-4.816,0,0-42.364-149.308-45.34-151.556C365.021,222.74,234.079,227.567,222.426,228.407Z" transform="translate(-219.815 -222.671)" fill="#0a3e4f"/><path d="M228.053,225.1l41.489,148.944a3.308,3.308,0,0,1-2.294,4.077l-3.067.852a3.308,3.308,0,0,1-4.077-2.294L220.17,230.96a7.068,7.068,0,0,1,1.113-6.417l2.692-1.738A3.3,3.3,0,0,1,228.053,225.1Z" transform="translate(-79.133 -222.679)" fill="#192329"/><path d="M230.971,362.481l-13.845-1.658.08-2.283L206,357.449l-.068,2.1-5.338-.3.045-2.578-11.21-.5-.068,1.829-4.838-.3.068-2.09-11.21-.5-.068,1.9-5.349-.329.057-1.829-11.21-.5L156.749,356l-13.039-.8a3.729,3.729,0,0,0-3.691,3.975v7.6a3.763,3.763,0,0,0,3.5,3.975h87.227a3.763,3.763,0,0,0,3.5-3.975v-.329A3.742,3.742,0,0,0,230.971,362.481Z" transform="translate(46.96 -204.802)" fill="#192329"/></g><g transform="translate(35.095 418.427)"><rect width="191.251" height="150.443" transform="translate(250.606)" fill="#a1d8ce"/><path d="M14.26,404.415,205.511,441.8V372.58H14.26Z" transform="translate(236.346 -367.844)" fill="#89ccc2"/><rect width="214.455" height="20.342" transform="translate(243.599)" fill="#a1d8ce"/><path d="M200.617,518.853H415.594V368.41H181.82Z" transform="translate(-164.045 -368.41)" fill="#e5ffef"/><path d="M415.594,404.982V368.41H181.82l3.407,27.213Z" transform="translate(-164.045 -368.41)" fill="#a1d8ce"/><rect width="267.745" height="20.342" transform="translate(0)" fill="#e5ffef"/></g><g transform="translate(-19.645 -16.854)"><ellipse cx="121.888" cy="97.763" rx="121.888" ry="97.763" fill="#b1dbd8"/><path d="M258.44,147.781l59.283,30.488-23.8-47.028Z" transform="translate(-100.604 30.882)" fill="#b1dbd8"/><g transform="translate(57.153 82.181)"><ellipse cx="11.414" cy="11.414" rx="11.414" ry="11.414" transform="translate(22.059 31.685) rotate(-165.09)" fill="#407d85"/><circle cx="11.414" cy="11.414" r="11.414" transform="translate(66.654 32.284) rotate(-135)" fill="#407d85"/><ellipse cx="11.414" cy="11.414" rx="11.414" ry="11.414" transform="translate(127.818 31.441) rotate(-166.661)" fill="#407d85"/></g></g></g></g></g></svg>